<?xml version="1.0" encoding="UTF-8" standalone="no"?>
<!DOCTYPE svg PUBLIC "-//W3C//DTD SVG 1.1//EN" "http://www.w3.org/Graphics/SVG/1.1/DTD/svg11.dtd">
<svg width="100%" height="100%" viewBox="0 0 142 141" version="1.1" xmlns="http://www.w3.org/2000/svg" xmlns:xlink="http://www.w3.org/1999/xlink" xml:space="preserve" xmlns:serif="http://www.serif.com/" style="fill-rule:evenodd;clip-rule:evenodd;stroke-linejoin:round;stroke-miterlimit:2;">
    <g>
        <path d="M70.677,139.851C32.533,139.851 1.5,108.82 1.5,70.676C1.5,32.532 32.533,1.5 70.677,1.5C108.821,1.5 139.852,32.533 139.852,70.677C139.852,108.821 108.82,139.851 70.677,139.851Z" style="fill:rgb(105,111,87);fill-rule:nonzero;"/>
        <path d="M70.676,3C108.052,3 138.352,33.3 138.352,70.676C138.352,108.052 108.052,138.352 70.676,138.352C33.3,138.352 3,108.052 3,70.676C3,33.3 33.3,3 70.676,3M70.676,0C31.705,0 0,31.705 0,70.676C0,109.647 31.705,141.352 70.676,141.352C109.647,141.352 141.352,109.647 141.352,70.676C141.352,31.705 109.646,0 70.676,0Z" style="fill:rgb(240,245,240);fill-rule:nonzero;"/>
    </g>
    <g id="Stitched_1_">
        <g>
            <path d="M70.676,10.85C37.774,10.85 11.101,37.523 11.101,70.425C11.101,103.327 37.773,130 70.676,130C76.341,130 81.814,129.192 87.006,127.715C87.759,129.461 89.31,131.082 92.536,130.3C97.625,129.067 100.271,124.994 101.645,121.325C118.798,110.867 130.251,91.984 130.251,70.425C130.25,37.523 103.578,10.85 70.676,10.85ZM103.433,104.317C101.556,88.79 88.877,78.277 74.887,76.318C82.154,83.576 94.835,94.434 94.099,107.538C93.999,109.324 93.543,110.806 92.911,112.126C85.754,116.097 77.523,118.366 68.758,118.366C41.222,118.366 18.9,96.044 18.9,68.508C18.9,40.973 41.222,18.651 68.758,18.651C96.295,18.651 118.616,40.973 118.616,68.508C118.617,82.565 112.791,95.253 103.433,104.317ZM33.461,91.327C50.163,101.338 70.144,92.859 72.486,77.518C57.526,65.407 37.373,75.68 33.461,91.327ZM71.285,69.113C73.698,45.886 63.576,35.196 42.466,35.491C38.35,58.045 52.281,67.684 71.285,69.113ZM103.706,41.495C85.374,42.776 73.53,50.545 76.088,72.715C96.275,73.29 106.015,63.417 103.706,41.495Z" style="fill:rgb(240,245,240);fill-rule:nonzero;"/>
        </g>
    </g>
</svg>
